<?xml version="1.0" encoding="utf-8"?>
<!-- Generator: Adobe Illustrator 21.1.0, SVG Export Plug-In . SVG Version: 6.00 Build 0)  -->
<svg version="1.1" id="Calque_1" xmlns="http://www.w3.org/2000/svg" xmlns:xlink="http://www.w3.org/1999/xlink" x="0px" y="0px"
	 viewBox="0 0 1190.6 841.9" style="enable-background:new 0 0 1190.6 841.9;" xml:space="preserve">
<path fill="#CCC" d="M401.1,454.9v23.3c0,57-31.1,74.3-65.7,74.3c-24.2,0-44.9-13.8-44.9-42.3c0-28.5,21.6-38,45.8-42.3
	C366.5,462.6,391.6,457.4,401.1,454.9 M579.1,549c-32.8,0-65.2-20.3-65.2-60c0-35.4,25.5-54,62.2-74.7l75.2,92.4
	C636.1,532.2,608.9,549,579.1,549 M120.7,552.1c-43.2,0-70-36.3-70-91.6s26.8-91.6,70-91.6c43.2,0,66.5,36.3,66.5,91.6
	S163.9,552.1,120.7,552.1 M429.2,543V422.5c0-29.4-6.5-43.6-19-56.6c-13-13.8-33.3-20.7-59.6-20.7c-50.1,0-84.2,21.6-84.2,61.3
	c0,3,0,5.6,0.4,9.1l27.2,7.3c-0.4-3.5-0.4-6.9-0.4-9.9c0-30.7,23.3-43.6,55.7-43.6c38,0,51.8,21.2,51.8,43.6v4.8
	c0,10.4-4.3,16.4-15.6,18.1l-49.3,7.8c-43.2,6.9-75.2,23.3-75.2,67.4c0,43.2,35.4,65.7,72.6,65.7c27.7,0,54.4-13,67.8-32.8
	c0,11.2,0.4,21.2,2.6,27.2h28.5C430,565,429.2,548.2,429.2,543 M874.1,447.5l-28.9-6.9c-28.1-6.5-42.8-18.1-42.8-36.3
	c0-22.9,19-35.4,47.1-35.4c32,0,50.1,19.4,58.3,38.4l22-18.6c-13.4-24.2-38.4-44.1-79.9-44.1c-40.6,0-77.3,21.6-77.3,62.6
	c0,31.5,20.7,50.1,62.2,60.1l30.2,7.3c27.2,6.5,45.4,16.4,45.4,38c0,20.7-19.9,37.6-54.4,37.6c-28.9,0-52.7-13.4-70.4-43.6
	L760.5,524c19,34.1,56.2,52.3,93.3,52.3c49.7,0,86.4-25.5,86.4-65.2C940.2,477.3,914.7,457,874.1,447.5 M554.4,319.2
	c0-22.5,15.1-40.6,40.2-40.6c21.6,0,39.7,17.3,39.7,42.8c0,16.8-8.2,40.6-47.5,60.5C571.7,365,554.4,341.2,554.4,319.2 M124.2,576.2
	c57.9,0,92.4-51.8,92.4-115.8c0-68.3-33.7-115.8-90.7-115.8c-38,0-60.5,20.7-72.6,43.2V260H23.9v311h29.4v-33.7
	C65.4,559.8,88.7,576.2,124.2,576.2 M992.1,570.6h29.4v-121c0-59.6,30.7-81.2,62.2-81.2c28.5,0,53.6,12.1,53.6,61.3v141.3h29.4
	V425.5c0-53.6-28.5-81.2-76-81.2c-30.7,0-54.4,13.8-69.1,37.6V259.6h-29.4V570.6z M706.5,449.7l-22.9-26.4c-3.5,19-8.6,38.9-16,56.2
	l-64.8-77.8c35.9-19.4,61.8-46.7,61.8-82.5c0-36.3-28.5-64.4-70-64.4c-38.9,0-71.3,26.8-71.3,64.4c0,30.2,13,45.8,36.7,76
	c-44.9,22.5-76.9,48-76.9,96.3c0,50.5,42.3,84.7,93.7,84.7c38.5,0,70.4-17.7,91.2-48.8l38.4,43.6h38l-58.8-68.3
	C694.4,488.1,702.2,469.1,706.5,449.7"/>
</svg>
